<?xml version="1.0" encoding="utf-8"?>
<svg id="master-artboard" viewBox="0 0 500 500" version="1.1" xmlns="http://www.w3.org/2000/svg" x="0px" y="0px" width="500px" height="500px" enable-background="new 0 0 1400 980"><rect id="ee-background" x="0" y="0" width="500" height="500" style="fill: white; fill-opacity: 0; pointer-events: none;"/>


















<g transform="matrix(1, 0, 0, 1, -905.4549560546875, -11.178470611572266)">
		<path fill="#808285" d="M1333,419.3c0,13-10.6,23.6-23.6,23.6h-299.1c-13,0-23.6-10.6-23.6-23.6V87.2c0-13,10.6-23.6,23.6-23.6&#10;&#9;&#9;&#9;h299.1c13,0,23.6,10.6,23.6,23.6V419.3z" style="fill: rgb(96, 187, 191); stroke: rgb(0, 0, 0); paint-order: fill; stroke-width: 4;"/>
		<path d="M1309.4,445.9h-299.1c-14.7,0-26.7-12-26.7-26.6V87.2c0-14.7,12-26.6,26.7-26.6h299.1c14.7,0,26.6,12,26.6,26.6v332.1&#10;&#9;&#9;&#9;C1336,434,1324.1,445.9,1309.4,445.9z M1010.3,66.6c-11.4,0-20.6,9.2-20.6,20.6v332.1c0,11.3,9.2,20.6,20.6,20.6h299.1&#10;&#9;&#9;&#9;c11.3,0,20.6-9.2,20.6-20.6V87.2c0-11.3-9.2-20.6-20.6-20.6H1010.3z" style="fill: rgb(96, 187, 191); stroke: rgb(0, 0, 0); paint-order: fill; stroke-width: 4;"/>
	</g><path d="M 1017 94.599998 H 1303.5 V 163.900002 H 1017 V 94.599998 Z" fill="#FFFFFF" transform="matrix(1, 0, 0, 1, -905.4549560546875, -11.178470611572266)"/><path d="M1303.5,166.9H1017c-1.7,0-3-1.4-3-3V94.6c0-1.7,1.4-3,3-3h286.5c1.7,0,3,1.4,3,3v69.3&#10;&#9;&#9;&#9;C1306.5,165.6,1305.2,166.9,1303.5,166.9z M1020,160.9h280.4V97.7H1020V160.9z" transform="matrix(1, 0, 0, 1, -905.4549560546875, -11.178470611572266)"/><path d="M 1017 195 H 1071.099998 V 247.200001 H 1017 V 195 Z" fill="#BCBEC0" transform="matrix(1, 0, 0, 1, -905.4549560546875, -11.178470611572266)"/><path d="M1071.1,250.2H1017c-1.7,0-3-1.4-3-3V195c0-1.7,1.4-3,3-3h54.1c1.7,0,3,1.4,3,3v52.2&#10;&#9;&#9;&#9;C1074.1,248.8,1072.8,250.2,1071.1,250.2z M1020,244.1h48V198h-48V244.1z" transform="matrix(1, 0, 0, 1, -905.4549560546875, -11.178470611572266)"/><path d="M 1094.5 195 H 1148.599998 V 247.200001 H 1094.5 V 195 Z" fill="#BCBEC0" transform="matrix(1, 0, 0, 1, -905.4549560546875, -11.178470611572266)"/><path d="M1148.5,250.2h-54.1c-1.7,0-3-1.4-3-3V195c0-1.7,1.4-3,3-3h54.1c1.7,0,3,1.4,3,3v52.2&#10;&#9;&#9;&#9;C1151.6,248.8,1150.2,250.2,1148.5,250.2z M1097.5,244.1h48V198h-48V244.1z" transform="matrix(1, 0, 0, 1, -905.4549560546875, -11.178470611572266)"/><path d="M 1171.900024 195 H 1226.000023 V 247.200001 H 1171.900024 V 195 Z" fill="#BCBEC0" transform="matrix(1, 0, 0, 1, -905.4549560546875, -11.178470611572266)"/><path d="M1226,250.2h-54.1c-1.7,0-3-1.4-3-3V195c0-1.7,1.4-3,3-3h54.1c1.7,0,3,1.4,3,3v52.2C1229,248.8,1227.7,250.2,1226,250.2z&#10;&#9;&#9;&#9; M1175,244.1h48V198h-48V244.1z" transform="matrix(1, 0, 0, 1, -905.4549560546875, -11.178470611572266)"/><path d="M 1249.400024 195 H 1303.500023 V 247.200001 H 1249.400024 V 195 Z" fill="#BCBEC0" transform="matrix(1, 0, 0, 1, -905.4549560546875, -11.178470611572266)"/><path d="M1303.5,250.2h-54.1c-1.7,0-3-1.4-3-3V195c0-1.7,1.4-3,3-3h54.1c1.7,0,3,1.4,3,3v52.2&#10;&#9;&#9;&#9;C1306.5,248.8,1305.2,250.2,1303.5,250.2z M1252.4,244.1h48V198h-48V244.1z" transform="matrix(1, 0, 0, 1, -905.4549560546875, -11.178470611572266)"/><path d="M 1017 276.799988 H 1071.099998 V 328.999989 H 1017 V 276.799988 Z" fill="#BCBEC0" transform="matrix(1, 0, 0, 1, -905.4549560546875, -11.178470611572266)"/><path d="M1071.1,332H1017c-1.7,0-3-1.4-3-3v-52.2c0-1.7,1.4-3,3-3h54.1c1.7,0,3,1.4,3,3V329C1074.1,330.7,1072.8,332,1071.1,332z&#10;&#9;&#9;&#9; M1020,326h48v-46.1h-48V326z" transform="matrix(1, 0, 0, 1, -905.4549560546875, -11.178470611572266)"/><path d="M 1094.5 276.799988 H 1148.599998 V 328.999989 H 1094.5 V 276.799988 Z" fill="#BCBEC0" transform="matrix(1, 0, 0, 1, -905.4549560546875, -11.178470611572266)"/><path d="M1148.5,332h-54.1c-1.7,0-3-1.4-3-3v-52.2c0-1.7,1.4-3,3-3h54.1c1.7,0,3,1.4,3,3V329C1151.6,330.7,1150.2,332,1148.5,332z&#10;&#9;&#9;&#9; M1097.5,326h48v-46.1h-48V326z" transform="matrix(1, 0, 0, 1, -905.4549560546875, -11.178470611572266)"/><path d="M 1171.900024 276.799988 H 1226.000023 V 328.999989 H 1171.900024 V 276.799988 Z" fill="#BCBEC0" transform="matrix(1, 0, 0, 1, -905.4549560546875, -11.178470611572266)"/><path d="M1226,332h-54.1c-1.7,0-3-1.4-3-3v-52.2c0-1.7,1.4-3,3-3h54.1c1.7,0,3,1.4,3,3V329C1229,330.7,1227.7,332,1226,332z&#10;&#9;&#9;&#9; M1175,326h48v-46.1h-48V326z" transform="matrix(1, 0, 0, 1, -905.4549560546875, -11.178470611572266)"/><path d="M 1249.400024 276.799988 H 1303.500023 V 410.799988 H 1249.400024 V 276.799988 Z" fill="#BCBEC0" transform="matrix(1, 0, 0, 1, -905.4549560546875, -11.178470611572266)"/><path d="M1303.5,413.9h-54.1c-1.7,0-3-1.4-3-3v-134c0-1.7,1.4-3,3-3h54.1c1.7,0,3,1.4,3,3v134&#10;&#9;&#9;&#9;C1306.5,412.5,1305.2,413.9,1303.5,413.9z M1252.4,407.8h48V279.9h-48V407.8z" transform="matrix(1, 0, 0, 1, -905.4549560546875, -11.178470611572266)"/><path d="M 1017 358.700012 H 1071.099998 V 410.900013 H 1017 V 358.700012 Z" fill="#BCBEC0" transform="matrix(1, 0, 0, 1, -905.4549560546875, -11.178470611572266)"/><path d="M1071.1,413.9H1017c-1.7,0-3-1.4-3-3v-52.2c0-1.7,1.4-3,3-3h54.1c1.7,0,3,1.4,3,3v52.2&#10;&#9;&#9;&#9;C1074.1,412.5,1072.8,413.9,1071.1,413.9z M1020,407.8h48v-46.1h-48V407.8z" transform="matrix(1, 0, 0, 1, -905.4549560546875, -11.178470611572266)"/><path d="M 1094.5 358.700012 H 1148.599998 V 410.900013 H 1094.5 V 358.700012 Z" fill="#BCBEC0" transform="matrix(1, 0, 0, 1, -905.4549560546875, -11.178470611572266)"/><path d="M1148.5,413.9h-54.1c-1.7,0-3-1.4-3-3v-52.2c0-1.7,1.4-3,3-3h54.1c1.7,0,3,1.4,3,3v52.2&#10;&#9;&#9;&#9;C1151.6,412.5,1150.2,413.9,1148.5,413.9z M1097.5,407.8h48v-46.1h-48V407.8z" transform="matrix(1, 0, 0, 1, -905.4549560546875, -11.178470611572266)"/><path d="M 1171.900024 358.700012 H 1226.000023 V 410.900013 H 1171.900024 V 358.700012 Z" fill="#BCBEC0" transform="matrix(1, 0, 0, 1, -905.4549560546875, -11.178470611572266)"/><path d="M1226,413.9h-54.1c-1.7,0-3-1.4-3-3v-52.2c0-1.7,1.4-3,3-3h54.1c1.7,0,3,1.4,3,3v52.2C1229,412.5,1227.7,413.9,1226,413.9&#10;&#9;&#9;&#9;z M1175,407.8h48v-46.1h-48V407.8z" transform="matrix(1, 0, 0, 1, -905.4549560546875, -11.178470611572266)"/><path d="M1254.1,148.2c-0.8,0-1.6-0.3-2.1-0.9c-1.2-1.2-1.2-3.1,0-4.3l31.9-31.9c1.2-1.2,3.1-1.2,4.3,0c1.2,1.2,1.2,3.1,0,4.3&#10;&#9;&#9;&#9;l-31.9,31.9C1255.6,147.9,1254.9,148.2,1254.1,148.2z" transform="matrix(1, 0, 0, 1, -905.4549560546875, -11.178470611572266)"/>


































</svg>